Coordinates
version=1
nRows=54
nColumns=12
inDegrees=yes

Units are S.I. units (second, meters, Newtons, ...)
Angles are in degrees

endheader
time	SC_y	SC_z	SC_x	AC_y	AC_z	AC_x	GH_y	GH_z	GH_yy	EL_x	PS_y
       0.0              -15.62          3.726          64.55          38.85          -3.52         -4.976         -69.34          56.57          101.3          71.57          55.38
   0.01752              -15.62          3.729          64.54          38.85         -3.519         -4.976          -69.3          56.56          101.3          71.57           55.4
   0.03504              -15.62          3.733          64.53          38.86         -3.517         -4.976         -69.27          56.56          101.3          71.57          55.41
   0.05255              -15.62          3.736          64.52          38.86         -3.515         -4.976         -69.23          56.56          101.3          71.57          55.43
   0.07007              -15.63           3.74          64.52          38.86         -3.512         -4.977         -69.18          56.55          101.3          71.57          55.45
   0.08759              -15.63          3.744          64.51          38.87          -3.51         -4.977         -69.14          56.55          101.3          71.56          55.46
    0.1051              -15.63          3.749           64.5          38.87         -3.508         -4.977         -69.09          56.54          101.4          71.56          55.48
    0.1226              -15.63          3.753          64.49          38.88         -3.505         -4.977         -69.04          56.54          101.4          71.56           55.5
    0.1401              -15.63          3.758          64.48          38.88         -3.502         -4.977         -68.98          56.53          101.4          71.56          55.52
    0.1577              -15.63          3.764          64.46          38.89         -3.499         -4.978         -68.92          56.52          101.4          71.56          55.55
    0.1752              -15.64          3.769          64.45          38.89         -3.496         -4.978         -68.85          56.52          101.4          71.55          55.57
    0.1927              -15.64          3.776          64.44           38.9         -3.492         -4.978         -68.78          56.51          101.4          71.55           55.6
    0.2102              -15.64          3.782          64.42          38.91         -3.488         -4.978         -68.71           56.5          101.5          71.55          55.63
    0.2277              -15.64           3.79          64.41          38.91         -3.484         -4.979         -68.63          56.49          101.5          71.55          55.66
    0.2453              -15.65          3.797          64.39          38.92          -3.48         -4.979         -68.54          56.48          101.5          71.54          55.69
    0.2628              -15.65          3.806          64.37          38.93         -3.475         -4.979         -68.45          56.47          101.5          71.54          55.73
    0.2803              -15.66          3.815          64.35          38.94          -3.47          -4.98         -68.34          56.46          101.6          71.54          55.77
    0.2978              -15.66          3.825          64.33          38.95         -3.464          -4.98         -68.23          56.45          101.6          71.53          55.81
    0.3153              -15.66          3.836           64.3          38.96         -3.458         -4.981         -68.11          56.44          101.6          71.53          55.86
    0.3328              -15.67          3.848          64.28          38.97         -3.451         -4.981         -67.97          56.42          101.7          71.52          55.91
    0.3504              -15.67          3.861          64.25          38.98         -3.443         -4.982         -67.82          56.41          101.7          71.52          55.97
    0.3679              -15.68          3.876          64.22           39.0         -3.435         -4.982         -67.66          56.39          101.8          71.51          56.03
    0.3854              -15.69          3.892          64.18          39.01         -3.426         -4.983         -67.48          56.37          101.8          71.51           56.1
    0.4029              -15.69           3.91          64.14          39.03         -3.416         -4.984         -67.28          56.35          101.9           71.5          56.18
    0.4204               -15.7          3.929           64.1          39.05         -3.404         -4.985         -67.06          56.33          101.9          71.49          56.27
     0.438              -15.71          3.951          64.05          39.07         -3.392         -4.986         -66.82           56.3          102.0          71.48          56.36
    0.4555              -15.72          3.976           64.0           39.1         -3.378         -4.987         -66.54          56.27          102.1          71.47          56.47
     0.473              -15.73          4.004          63.94          39.12         -3.362         -4.988         -66.23          56.24          102.2          71.46          56.59
    0.4905              -15.74          4.035          63.87          39.15         -3.344         -4.989         -65.88           56.2          102.3          71.45          56.73
     0.508              -15.76          4.071          63.79          39.19         -3.324         -4.991         -65.48          56.16          102.4          71.44          56.88
    0.5255              -15.77          4.111           63.7          39.23           -3.3         -4.992         -65.02          56.11          102.5          71.42          57.06
    0.5431              -15.79          4.158           63.6          39.28         -3.274         -4.994          -64.5          56.05          102.6           71.4          57.26
    0.5606              -15.81          4.212          63.48          39.33         -3.243         -4.997         -63.89          55.99          102.8          71.38          57.49
    0.5781              -15.84          4.274          63.34          39.39         -3.207         -4.999         -63.19          55.91          103.0          71.36          57.76
    0.5956              -15.87          4.348          63.18          39.46         -3.166         -5.002         -62.37          55.82          103.2          71.33          58.08
    0.6131               -15.9          4.434          62.99          39.55         -3.116         -5.006          -61.4          55.72          103.5           71.3          58.46
    0.6307              -15.94          4.536          62.76          39.65         -3.058          -5.01         -60.25           55.6          103.8          71.26           58.9
    0.6482              -15.99          4.659          62.49          39.77         -2.987         -5.016         -58.88          55.45          104.2          71.21          59.43
    0.6657              -16.05          4.808          62.17          39.92         -2.903         -5.022         -57.21          55.27          104.7          71.15          60.08
    0.6832              -16.12           4.99          61.77           40.1         -2.799          -5.03         -55.17          55.06          105.3          71.08          60.87
    0.7007              -16.21          5.214          61.27          40.32         -2.671         -5.039         -52.66          54.79          106.0          70.99          61.84
    0.7182              -16.33          5.494          60.66          40.59         -2.511         -5.051         -49.52          54.45          106.8          70.88          63.05
    0.7358              -16.47          5.846          59.88          40.94          -2.31         -5.066         -45.57          54.03          107.9          70.74          64.58
    0.7533              -16.65          6.293           58.9          41.38         -2.054         -5.085         -40.55           53.5          109.3          70.57          66.53
    0.7708              -16.88          6.867          57.64          41.94         -1.727         -5.109         -34.13          52.81          111.1          70.35          69.01
    0.7883              -17.17          7.602          56.02          42.67         -1.307         -5.141         -25.88          51.93          113.4          70.06          72.21
    0.8058              -17.55          8.541          53.96          43.59        -0.7707         -5.181         -15.34          50.81          116.4          69.69          76.28
    0.8234              -18.02          9.723          51.36          44.76       -0.09617         -5.231         -2.099           49.4          120.1          69.23          81.41
    0.8409              -18.59          11.16          48.19          46.17         0.7258         -5.292          14.04          47.67          124.6          68.67          87.66
    0.8584              -19.26          12.83          44.52          47.82          1.679         -5.363          32.75          45.68          129.8          68.02           94.9
    0.8759              -19.98          14.64          40.55           49.6           2.71         -5.439          53.01          43.52          135.5          67.32          102.7
    0.8934              -20.71          16.44          36.58          51.37          3.742         -5.516          73.27          41.36          141.2          66.61          110.6
     0.911              -21.37          18.11          32.91          53.02          4.695         -5.587          91.98          39.36          146.4          65.96          117.8
    0.9285              -21.95          19.55          29.74          54.44          5.517         -5.648          108.1          37.64          150.9           65.4          124.1
